#!OML:ASF I:\Actors\actors\Patient Classification 2\Patient 1\Session 1\actor1.ASF
:FULLY-SPECIFIED
:DEGREES
531
root -0.408191 18.869 4.82913 21.6856 4.13025 -1.60761
lowerback 28.5087 -0.161783 0.726942
upperback 3.4981 0.0951943 0.53244
thorax -11.8832 0.0284089 0.150196
lowerneck -18.6232 -2.89664 -0.575224
upperneck 4.09256 -4.24049 5.40028
head 4.33143 -1.75622 1.39971
rclavicle 1.93815e-015 1.02374e-014
rhumerus 11.1651 24.1448 -78.4198
rradius 52.5989
rwrist 19.0922
rhand -19.879 -40.4269
rfingers 7.12502
rthumb 6.45661 -70.3085
lclavicle 1.93815e-015 1.02374e-014
lhumerus 11.1453 -34.1168 79.6401
lradius 60.8145
lwrist -3.51527
lhand -15.4736 -24.6228
lfingers 7.12502
lthumb 10.708 5.08427
rfemur -20.3558 -2.24004 15.6513
rtibia 4.16053
rfoot -16.921 -17.7557
rtoes -3.17313
lfemur -37.3854 -0.713077 -12.4558
ltibia 28.9711
lfoot -13.7542 6.44082
ltoes -55.5345
532
root -0.406701 18.8702 4.83038 21.4791 4.05216 -1.6736
lowerback 28.4427 -0.153663 0.764169
upperback 3.50184 0.111403 0.49979
thorax -11.8445 0.0330257 0.0851957
lowerneck -18.5741 -2.86013 -0.439392
upperneck 4.06855 -4.21677 5.35296
head 4.31172 -1.7463 1.36615
rclavicle 6.26172e-015 2.88238e-015
rhumerus 11.1711 24.3931 -78.2658
rradius 52.4589
rwrist 18.6953
rhand -19.6196 -40.393
rfingers 7.12502
rthumb 6.70707 -70.2668
lclavicle 6.26172e-015 2.88238e-015
lhumerus 10.8992 -34.0071 79.7598
lradius 60.7096
lwrist -3.54925
lhand -15.3619 -24.5085
lfingers 7.12502
lthumb 10.8157 5.19306
rfemur -19.8701 -2.13163 15.672
rtibia 3.61707
rfoot -16.747 -17.9061
rtoes -2.89047
lfemur -37.1371 -0.653162 -12.4273
ltibia 28.9608
lfoot -13.7732 6.46412
ltoes -55.5375
533
root -0.404652 18.8732 4.83666 21.1329 3.98099 -1.73776
lowerback 28.4867 -0.15648 0.805945
upperback 3.50439 0.118397 0.48233
thorax -11.8641 0.0335832 0.0385669
lowerneck -18.4849 -2.82187 -0.435064
upperneck 4.03967 -4.16714 5.38462
head 4.28842 -1.72162 1.38082
rclavicle -3.52843e-015 5.11871e-015
rhumerus 11.1674 24.9325 -77.8825
rradius 52.2967
rwrist 17.9417
rhand -19.4562 -40.3623
rfingers 7.12502
rthumb 6.86482 -70.231
lclavicle -3.52843e-015 5.11871e-015
lhumerus 10.4967 -33.8725 79.9838
lradius 60.6483
lwrist -3.56058
lhand -15.1605 -24.2849
lfingers 7.12502
lthumb 11.01 5.40632
rfemur -18.9837 -2.02341 15.684
rtibia 2.62723
rfoot -16.4126 -18.1869
rtoes -2.7286
lfemur -36.6951 -0.759676 -12.345
ltibia 28.9451
lfoot -13.8688 6.58203
ltoes -55.5426
534
root -0.401875 18.8766 4.84893 20.7977 3.85818 -1.77362
lowerback 28.4086 -0.132577 0.755645
upperback 3.48407 0.133592 0.490401
thorax -11.8473 0.0428923 0.0711545
lowerneck -18.4952 -2.77304 -0.485149
upperneck 4.19476 -4.09606 5.36638
head 4.3368 -1.68486 1.38872
rclavicle 1.19271e-015 -4.57205e-015
rhumerus 11.0017 25.2843 -77.7495
rradius 52.2158
rwrist 17.3588
rhand -19.1305 -40.2893
rfingers 7.12502
rthumb 7.17915 -70.1475
lclavicle 1.19271e-015 -4.57205e-015
lhumerus 9.90064 -33.7091 80.3214
lradius 60.6336
lwrist -3.55123
lhand -14.9098 -23.9744
lfingers 7.12502
lthumb 11.2518 5.70387
rfemur -17.2816 -1.88811 15.6366
rtibia 5.56597e-015
rfoot -15.424 -19.0268
rtoes -2.7444
lfemur -36.2136 -0.907231 -12.2924
ltibia 28.9143
lfoot -14.0301 6.77638
ltoes -55.57
535
root -0.399506 18.8781 4.86228 20.5425 3.73253 -1.80536
lowerback 28.1707 -0.106328 0.721127
upperback 3.43193 0.152645 0.480239
thorax -11.7842 0.0527495 0.0723107
lowerneck -18.4606 -2.74429 -0.462716
upperneck 4.33877 -4.06387 5.31039
head 4.37357 -1.66942 1.37023
rclavicle 5.96354e-016 6.16232e-015
rhumerus 10.6603 25.3177 -77.9617
rradius 52.1836
rwrist 17.0327
rhand -18.6681 -40.2343
rfingers 7.12502
rthumb 7.62549 -70.0769
lclavicle 5.96354e-016 6.16232e-015
lhumerus 9.23101 -33.6619 80.6147
lradius 60.6646
lwrist -3.44052
lhand -14.7677 -23.5952
lfingers 7.12502
lthumb 11.3888 6.07551
rfemur -16.9703 -1.74265 15.609
rtibia 8.34896e-015
rfoot -15.4736 -18.9857
rtoes -2.76297
lfemur -35.8202 -0.934175 -12.2834
ltibia 28.8686
lfoot -14.1566 6.90069
ltoes -55.6083
536
root -0.398239 18.8786 4.87522 20.2742 3.65304 -1.79551
lowerback 27.8932 -0.0854333 0.692496
upperback 3.39418 0.166054 0.466618
thorax -11.6835 0.0598946 0.068248
lowerneck -18.3935 -2.76515 -0.506642
upperneck 4.37635 -4.08639 5.3488
head 4.37753 -1.67899 1.38751
rclavicle 1.2921e-015 4.96962e-016
rhumerus 10.23 25.2228 -78.2261
rradius 52.1982
rwrist 16.84
rhand -18.1087 -40.1274
rfingers 7.12502
rthumb 8.16545 -69.9496
lclavicle 1.2921e-015 4.96962e-016
lhumerus 8.5396 -33.6852 80.9145
lradius 60.7462
lwrist -3.29744
lhand -14.6399 -23.2381
lfingers 7.12502
lthumb 11.512 6.42577
rfemur -16.6351 -1.65256 15.5612
rtibia -7.15625e-015
rfoot -15.5037 -18.9515
rtoes -2.90248
lfemur -35.4307 -0.937361 -12.3227
ltibia 28.8207
lfoot -14.2457 6.94023
ltoes -55.6236
537
root -0.39701 18.8798 4.88929 19.9901 3.59986 -1.79251
lowerback 27.5734 -0.0811725 0.644119
upperback 3.34911 0.156068 0.482883
thorax -11.569 0.0581613 0.118174
lowerneck -18.4167 -2.75246 -0.545529
upperneck 4.49984 -4.06438 5.32781
head 4.41919 -1.66707 1.38838
rclavicle -1.2921e-015 1.05356e-014
rhumerus 9.69993 25.1866 -78.4988
rradius 52.3068
rwrist 16.7194
rhand -17.5246 -40.125
rfingers 7.12502
rthumb 8.72916 -69.9245
lclavicle -1.2921e-015 1.05356e-014
lhumerus 7.71126 -33.6765 81.2614
lradius 60.6274
lwrist -3.60919
lhand -14.9829 -23.3081
lfingers 7.12502
lthumb 11.1813 6.37398
rfemur -16.275 -1.58158 15.5338
rtibia -4.77083e-015
rfoot -15.4913 -18.9404
rtoes -3.30544
lfemur -35.0223 -0.954264 -12.3455
ltibia 28.7709
lfoot -14.333 6.94689
ltoes -55.5805
538
root -0.396345 18.8814 4.90427 19.6676 3.54069 -1.86025
lowerback 27.2728 -0.0865223 0.661695
upperback 3.28044 0.152101 0.488163
thorax -11.491 0.0556487 0.115326
lowerneck -18.4582 -2.72043 -0.553046
upperneck 4.6525 -4.02895 5.34486
head 4.47292 -1.64445 1.39712
rclavicle 7.00716e-015 -7.85199e-015
rhumerus 9.07521 25.2037 -78.8343
rradius 52.4175
rwrist 16.543
rhand -17.0379 -40.2119
rfingers 7.12502
rthumb 9.19878 -69.9913
lclavicle 7.00716e-015 -7.85199e-015
lhumerus 6.80241 -33.7898 81.5245
lradius 60.0541
lwrist -4.72211
lhand -16.4103 -23.9821
lfingers 7.12502
lthumb 9.80431 5.76961
rfemur -15.8784 -1.47401 15.5835
rtibia 1.11319e-014
rfoot -15.4889 -18.9223
rtoes -3.55408
lfemur -34.5574 -0.937067 -12.2951
ltibia 28.7076
lfoot -14.4148 6.94335
ltoes -55.5242
539
root -0.396354 18.8833 4.92042 19.2602 3.45124 -1.93334
lowerback 27.0583 -0.0607572 0.72006
upperback 3.22034 0.198002 0.472688
thorax -11.4474 0.0734183 0.0475738
lowerneck -18.5466 -2.74609 -0.666655
upperneck 4.76744 -4.05862 5.50154
head 4.5299 -1.6468 1.46016
rclavicle 1.73937e-015 -5.76476e-015
rhumerus 8.38083 25.1375 -79.1639
rradius 52.4728
rwrist 16.3753
rhand -16.6472 -40.0247
rfingers 7.12502
rthumb 9.57571 -69.7871
lclavicle 1.73937e-015 -5.76476e-015
lhumerus 5.81744 -34.0159 81.8101
lradius 60.0525
lwrist -4.53885
lhand -16.4822 -23.8227
lfingers 7.12502
lthumb 9.73496 5.93229
rfemur -15.3865 -1.32994 15.6287
rtibia -2.14687e-014
rfoot -15.5619 -18.8716
rtoes -3.38382
lfemur -33.9807 -0.893328 -12.2546
ltibia 28.6332
lfoot -14.4936 6.89851
ltoes -55.4712
540
root -0.395189 18.8857 4.93977 18.799 3.38929 -1.97342
lowerback 26.8264 -0.0445771 0.779548
upperback 3.18762 0.233676 0.474811
thorax -11.3629 0.087226 0.00294275
lowerneck -18.6893 -2.79639 -0.756455
upperneck 4.90606 -4.11474 5.52411
head 4.5994 -1.66928 1.47447
rclavicle 9.19379e-015 4.87022e-015
rhumerus 7.62714 25.1394 -79.4162
rradius 52.5706
rwrist 16.245
rhand -16.4735 -39.8115
rfingers 7.12502
rthumb 9.74333 -69.5661
lclavicle 9.19379e-015 4.87022e-015
lhumerus 4.70616 -34.1719 82.2226
lradius 60.253
lwrist -4.03643
lhand -15.9686 -23.3824
lfingers 7.12502
lthumb 10.2305 6.34887
rfemur -14.8092 -1.22159 15.6445
rtibia 3.57812e-014
rfoot -15.6717 -18.8032
rtoes -3.185
lfemur -33.3316 -0.889402 -12.2529
ltibia 28.5456
lfoot -14.5813 6.86693
ltoes -55.5061
541
root -0.393302 18.8883 4.96229 18.3181 3.3674 -1.99132
lowerback 26.5408 -0.073908 0.82459
upperback 3.14902 0.20478 0.467715
thorax -11.2569 0.0720371 -0.0206976
lowerneck -18.7281 -2.77628 -0.633674
upperneck 5.02167 -4.10251 5.33225
head 4.63357 -1.67037 1.39519
rclavicle 1.68967e-015 -5.96354e-016
rhumerus 6.79526 25.281 -79.7389
rradius 52.6946
rwrist 16.2769
rhand -16.479 -39.8312
rfingers 7.12502
rthumb 9.73801 -69.5861
lclavicle 1.68967e-015 -5.96354e-016
lhumerus 3.60233 -34.2618 82.6192
lradius 60.3295
lwrist -3.52899
lhand -15.4502 -23.0191
lfingers 7.12502
lthumb 10.7305 6.68686
rfemur -14.1862 -1.1566 15.6541
rtibia 1.35174e-014
rfoot -15.7608 -18.7394
rtoes -3.21403
lfemur -32.6453 -0.887682 -12.2824
ltibia 28.4282
lfoot -14.6521 6.84753
ltoes -55.6297
542
root -0.393288 18.8909 4.98532 17.821 3.31557 -1.98948
lowerback 26.2663 -0.0817819 0.817838
upperback 3.07713 0.18648 0.440349
thorax -11.1946 0.0632556 -0.0410997
lowerneck -18.6851 -2.7487 -0.53153
upperneck 5.08218 -4.08302 5.24707
head 4.64105 -1.66353 1.35422
rclavicle 6.36111e-015 9.74045e-015
rhumerus 5.85689 25.3763 -80.1579
rradius 52.7839
rwrist 16.467
rhand -16.3993 -39.8304
rfingers 7.12502
rthumb 9.81493 -69.5817
lclavicle 6.36111e-015 9.74045e-015
lhumerus 2.43397 -34.3539 83.0743
lradius 60.3834
lwrist -2.86455
lhand -14.7775 -22.5363
lfingers 7.12502
lthumb 11.3793 7.13494
rfemur -13.5492 -1.06686 15.6405
rtibia 7.95139e-016
rfoot -15.8496 -18.6811
rtoes -3.26918
lfemur -31.9193 -0.85175 -12.3356
ltibia 28.2868
lfoot -14.7233 6.82344
ltoes -55.6969
543
root -0.394982 18.893 5.00745 17.3041 3.25637 -1.93366
lowerback 25.9985 -0.0460092 0.758203
upperback 3.02454 0.211434 0.426855
thorax -11.1133 0.0772112 -0.0304939
lowerneck -18.7874 -2.81888 -0.670413
upperneck 5.17788 -4.16391 5.38814
head 4.69589 -1.69278 1.4115
rclavicle 4.47266e-015 2.5842e-015
rhumerus 4.96599 25.4091 -80.4562
rradius 52.8603
rwrist 16.4868
rhand -16.3543 -39.6595
rfingers 7.12502
rthumb 9.85833 -69.4087
lclavicle 4.47266e-015 2.5842e-015
lhumerus 1.24497 -34.4293 83.6584
lradius 60.4538
lwrist -2.04281
lhand -13.9614 -21.9719
lfingers 7.12502
lthumb 12.1663 7.65436
rfemur -12.893 -0.985435 15.5698
rtibia 2.22639e-014
rfoot -15.9644 -18.6261
rtoes -3.32279
lfemur -31.163 -0.894357 -12.4194
ltibia 28.1429
lfoot -14.835 6.8351
ltoes -55.6712
544
root -0.395931 18.8938 5.03154 16.7757 3.22202 -1.91177
lowerback 25.6974 -0.0285124 0.706728
upperback 2.98103 0.220926 0.46164
thorax -11.0039 0.0850486 0.03513
lowerneck -18.9451 -2.85626 -0.773951
upperneck 5.34506 -4.2006 5.41154
head 4.77658 -1.70518 1.42968
rclavicle 1.55549e-014 6.16232e-015
rhumerus 4.09641 25.5546 -80.6987
rradius 52.9728
rwrist 16.3025
rhand -16.3454 -39.5387
rfingers 7.12502
rthumb 9.86694 -69.2875
lclavicle 1.55549e-014 6.16232e-015
lhumerus 0.0372245 -34.3965 84.2977
lradius 60.4584
lwrist -1.38854
lhand -13.0933 -20.9987
lfingers 7.12502
lthumb 13.0032 8.57604
rfemur -12.2145 -0.915766 15.5411
rtibia -3.26007e-014
rfoot -16.0853 -18.5565
rtoes -3.45911
lfemur -30.3868 -0.98943 -12.4516
ltibia 28.0013
lfoot -14.9893 6.83431
ltoes -55.6152
